<?xml version="1.0" encoding="iso-8859-1"?>
<!-- Uploaded to: SVG Repo, www.svgrepo.com, Generator: SVG Repo Mixer Tools -->
<svg version="1.1" id="Layer_1" xmlns="http://www.w3.org/2000/svg" xmlns:xlink="http://www.w3.org/1999/xlink" 
	 viewBox="0 0 512 512" xml:space="preserve">
<rect x="97.208" y="10.199" style="fill:#FFD890;" width="317.593" height="462.942"/>
<path style="fill:#BDD169;" d="M215.66,238.511V153.43c0-63.279-51.297-114.576-114.576-114.576H86.598
	c-10.719,0-19.41,8.69-19.41,19.41v424.127c0,10.719,8.69,19.41,19.41,19.41h338.804c10.719,0,19.41-8.69,19.41-19.41v-14.729
	c0-63.279-51.297-114.576-114.576-114.576l0,0C266.957,353.087,215.66,301.789,215.66,238.511z"/>
<g>
	<path style="fill:#4C1D1D;" d="M424.994,386.581V10.199C424.994,4.566,420.428,0,414.795,0H97.204
		c-5.633,0-10.199,4.566-10.199,10.199v18.455h-0.407c-16.327,0-29.609,13.282-29.609,29.609v424.127
		c0,16.327,13.282,29.609,29.609,29.609h338.804c16.327,0,29.609-13.282,29.609-29.609v-14.728
		C455.01,436.736,443.695,408.406,424.994,386.581z M404.596,20.398v347.13c-20.781-15.472-46.52-24.64-74.36-24.64
		c-19.765,0-38.264-5.523-54.036-15.106h77.368c5.633,0,10.199-4.566,10.199-10.199s-4.566-10.199-10.199-10.199H251.878
		c-13.408-15.236-22.457-34.395-25.167-55.512h126.856c5.633,0,10.199-4.566,10.199-10.199s-4.566-10.199-10.199-10.199H225.859
		v-54.519h127.707c5.633,0,10.199-4.566,10.199-10.199c0-5.633-4.566-10.199-10.199-10.199H225.859v-3.126
		c0-18.311-3.965-35.713-11.082-51.394h93.194c5.633,0,10.199-4.566,10.199-10.199c0-5.633-4.566-10.199-10.199-10.199H203.079
		c-21.471-30.414-56.182-50.844-95.677-52.824v-8.415H404.596z M434.612,482.391c0,5.078-4.132,9.211-9.211,9.211H86.598
		c-5.078,0-9.211-4.132-9.211-9.211V58.264c0-5.078,4.132-9.211,9.211-9.211h14.486c57.553,0,104.377,46.824,104.377,104.377v85.082
		c0,68.802,55.973,124.775,124.775,124.775c57.553,0,104.377,46.824,104.377,104.377L434.612,482.391L434.612,482.391z"/>
	<path style="fill:#4C1D1D;" d="M350.001,102.036h3.566c5.633,0,10.199-4.566,10.199-10.199c0-5.633-4.566-10.199-10.199-10.199
		h-3.566c-5.633,0-10.199,4.566-10.199,10.199C339.802,97.47,344.368,102.036,350.001,102.036z"/>
</g>
</svg>